<mxfile host="app.diagrams.net" agent="Mozilla/5.0 (Windows NT 10.0; Win64; x64) AppleWebKit/537.36 (KHTML, like Gecko) Chrome/134.0.0.0 Safari/537.36" version="26.1.3">
  <diagram name="Page-1" id="2YBvvXClWsGukQMizWep">
    <mxGraphModel dx="1050" dy="557" grid="1" gridSize="10" guides="1" tooltips="1" connect="1" arrows="1" fold="1" page="1" pageScale="1" pageWidth="850" pageHeight="1100" math="0" shadow="0">
      <root>
        <mxCell id="0" />
        <mxCell id="1" parent="0" />
        <mxCell id="Q9_j2RHIWAGlf_NVnAla-1" value="&lt;font face=&quot;Comic Sans MS&quot;&gt;PacketProcessor&lt;/font&gt;" style="rounded=1;whiteSpace=wrap;html=1;strokeWidth=2;fillWeight=4;hachureGap=8;hachureAngle=45;fillColor=#fff2cc;sketch=1;strokeColor=#d6b656;" vertex="1" parent="1">
          <mxGeometry x="60" y="160" width="180" height="60" as="geometry" />
        </mxCell>
        <mxCell id="Q9_j2RHIWAGlf_NVnAla-7" value="" style="group" vertex="1" connectable="0" parent="1">
          <mxGeometry x="490" y="60" width="100" height="240" as="geometry" />
        </mxCell>
        <mxCell id="Q9_j2RHIWAGlf_NVnAla-2" value="&lt;font face=&quot;Comic Sans MS&quot;&gt;thread1&lt;/font&gt;" style="rounded=1;whiteSpace=wrap;html=1;strokeWidth=2;fillWeight=4;hachureGap=8;hachureAngle=45;fillColor=#d5e8d4;sketch=1;strokeColor=#82b366;" vertex="1" parent="Q9_j2RHIWAGlf_NVnAla-7">
          <mxGeometry width="100" height="40" as="geometry" />
        </mxCell>
        <mxCell id="Q9_j2RHIWAGlf_NVnAla-3" value="&lt;font face=&quot;Comic Sans MS&quot;&gt;...&lt;/font&gt;" style="rounded=1;whiteSpace=wrap;html=1;strokeWidth=2;fillWeight=4;hachureGap=8;hachureAngle=45;fillColor=#d5e8d4;sketch=1;strokeColor=#82b366;" vertex="1" parent="Q9_j2RHIWAGlf_NVnAla-7">
          <mxGeometry y="200" width="100" height="40" as="geometry" />
        </mxCell>
        <mxCell id="Q9_j2RHIWAGlf_NVnAla-4" value="&lt;font face=&quot;Comic Sans MS&quot;&gt;thread4&lt;/font&gt;" style="rounded=1;whiteSpace=wrap;html=1;strokeWidth=2;fillWeight=4;hachureGap=8;hachureAngle=45;fillColor=#d5e8d4;sketch=1;strokeColor=#82b366;" vertex="1" parent="Q9_j2RHIWAGlf_NVnAla-7">
          <mxGeometry y="150" width="100" height="40" as="geometry" />
        </mxCell>
        <mxCell id="Q9_j2RHIWAGlf_NVnAla-5" value="&lt;font face=&quot;Comic Sans MS&quot;&gt;thread3&lt;/font&gt;" style="rounded=1;whiteSpace=wrap;html=1;strokeWidth=2;fillWeight=4;hachureGap=8;hachureAngle=45;fillColor=#d5e8d4;sketch=1;strokeColor=#82b366;" vertex="1" parent="Q9_j2RHIWAGlf_NVnAla-7">
          <mxGeometry y="100" width="100" height="40" as="geometry" />
        </mxCell>
        <mxCell id="Q9_j2RHIWAGlf_NVnAla-6" value="&lt;font face=&quot;Comic Sans MS&quot;&gt;thread2&lt;/font&gt;" style="rounded=1;whiteSpace=wrap;html=1;strokeWidth=2;fillWeight=4;hachureGap=8;hachureAngle=45;fillColor=#d5e8d4;sketch=1;strokeColor=#82b366;" vertex="1" parent="Q9_j2RHIWAGlf_NVnAla-7">
          <mxGeometry y="50" width="100" height="40" as="geometry" />
        </mxCell>
        <mxCell id="Q9_j2RHIWAGlf_NVnAla-9" value="" style="endArrow=classic;html=1;rounded=0;exitX=1;exitY=0.5;exitDx=0;exitDy=0;sketch=1;curveFitting=1;jiggle=2;" edge="1" parent="1" source="Q9_j2RHIWAGlf_NVnAla-1">
          <mxGeometry relative="1" as="geometry">
            <mxPoint x="220" y="90" as="sourcePoint" />
            <mxPoint x="300" y="190" as="targetPoint" />
          </mxGeometry>
        </mxCell>
        <mxCell id="Q9_j2RHIWAGlf_NVnAla-10" value="" style="shape=message;html=1;outlineConnect=0;fontFamily=Comic Sans MS;" vertex="1" parent="Q9_j2RHIWAGlf_NVnAla-9">
          <mxGeometry width="20" height="14" relative="1" as="geometry">
            <mxPoint x="-10" y="-7" as="offset" />
          </mxGeometry>
        </mxCell>
        <mxCell id="Q9_j2RHIWAGlf_NVnAla-11" value="" style="verticalLabelPosition=bottom;verticalAlign=top;html=1;shape=mxgraph.basic.partConcEllipse;startAngle=0.25;endAngle=0.1;arcWidth=0.5;sketch=1;curveFitting=1;jiggle=2;fillColor=#fff2cc;strokeColor=#d6b656;" vertex="1" parent="1">
          <mxGeometry x="300" y="140" width="100" height="100" as="geometry" />
        </mxCell>
        <mxCell id="Q9_j2RHIWAGlf_NVnAla-13" value="" style="html=1;shadow=0;dashed=0;align=center;verticalAlign=middle;shape=mxgraph.arrows2.arrow;dy=0.67;dx=20;notch=0;sketch=1;curveFitting=1;jiggle=2;" vertex="1" parent="1">
          <mxGeometry x="410" y="170" width="60" height="30" as="geometry" />
        </mxCell>
        <mxCell id="Q9_j2RHIWAGlf_NVnAla-14" value="&lt;font face=&quot;Comic Sans MS&quot;&gt;docker0&lt;/font&gt;" style="rounded=1;whiteSpace=wrap;html=1;strokeWidth=2;fillWeight=4;hachureGap=8;hachureAngle=45;fillColor=#fad9d5;sketch=1;strokeColor=#ae4132;" vertex="1" parent="1">
          <mxGeometry x="110" y="280" width="80" height="40" as="geometry" />
        </mxCell>
        <mxCell id="Q9_j2RHIWAGlf_NVnAla-15" value="&lt;font face=&quot;Comic Sans MS&quot;&gt;ens33&lt;/font&gt;" style="rounded=1;whiteSpace=wrap;html=1;strokeWidth=2;fillWeight=4;hachureGap=8;hachureAngle=45;fillColor=#fad9d5;sketch=1;strokeColor=#ae4132;" vertex="1" parent="1">
          <mxGeometry x="700" y="150" width="80" height="40" as="geometry" />
        </mxCell>
        <mxCell id="Q9_j2RHIWAGlf_NVnAla-16" value="" style="endArrow=classic;html=1;rounded=0;exitX=1;exitY=0.5;exitDx=0;exitDy=0;sketch=1;curveFitting=1;jiggle=2;" edge="1" parent="1" source="Q9_j2RHIWAGlf_NVnAla-2">
          <mxGeometry width="50" height="50" relative="1" as="geometry">
            <mxPoint x="650" y="100" as="sourcePoint" />
            <mxPoint x="700" y="170" as="targetPoint" />
          </mxGeometry>
        </mxCell>
        <mxCell id="Q9_j2RHIWAGlf_NVnAla-18" value="" style="endArrow=classic;html=1;rounded=0;exitX=1;exitY=0.5;exitDx=0;exitDy=0;sketch=1;curveFitting=1;jiggle=2;" edge="1" parent="1" source="Q9_j2RHIWAGlf_NVnAla-3">
          <mxGeometry width="50" height="50" relative="1" as="geometry">
            <mxPoint x="630" y="300" as="sourcePoint" />
            <mxPoint x="700" y="170" as="targetPoint" />
          </mxGeometry>
        </mxCell>
        <mxCell id="Q9_j2RHIWAGlf_NVnAla-20" value="" style="endArrow=classic;html=1;rounded=0;exitX=1;exitY=0.5;exitDx=0;exitDy=0;sketch=1;curveFitting=1;jiggle=2;" edge="1" parent="1" source="Q9_j2RHIWAGlf_NVnAla-4">
          <mxGeometry width="50" height="50" relative="1" as="geometry">
            <mxPoint x="400" y="220" as="sourcePoint" />
            <mxPoint x="700" y="170" as="targetPoint" />
          </mxGeometry>
        </mxCell>
        <mxCell id="Q9_j2RHIWAGlf_NVnAla-22" value="" style="endArrow=classic;html=1;rounded=0;exitX=1;exitY=0.5;exitDx=0;exitDy=0;sketch=1;curveFitting=1;jiggle=2;" edge="1" parent="1" source="Q9_j2RHIWAGlf_NVnAla-5">
          <mxGeometry width="50" height="50" relative="1" as="geometry">
            <mxPoint x="400" y="220" as="sourcePoint" />
            <mxPoint x="700" y="170" as="targetPoint" />
          </mxGeometry>
        </mxCell>
        <mxCell id="Q9_j2RHIWAGlf_NVnAla-24" value="" style="endArrow=classic;html=1;rounded=0;exitX=1;exitY=0.5;exitDx=0;exitDy=0;sketch=1;curveFitting=1;jiggle=2;entryX=0;entryY=0.5;entryDx=0;entryDy=0;" edge="1" parent="1" source="Q9_j2RHIWAGlf_NVnAla-6" target="Q9_j2RHIWAGlf_NVnAla-15">
          <mxGeometry width="50" height="50" relative="1" as="geometry">
            <mxPoint x="660" y="110" as="sourcePoint" />
            <mxPoint x="690" y="170" as="targetPoint" />
          </mxGeometry>
        </mxCell>
        <mxCell id="Q9_j2RHIWAGlf_NVnAla-25" value="" style="endArrow=classic;html=1;rounded=0;exitX=0.5;exitY=0;exitDx=0;exitDy=0;entryX=0.5;entryY=1;entryDx=0;entryDy=0;sketch=1;curveFitting=1;jiggle=2;" edge="1" parent="1" source="Q9_j2RHIWAGlf_NVnAla-14" target="Q9_j2RHIWAGlf_NVnAla-1">
          <mxGeometry width="50" height="50" relative="1" as="geometry">
            <mxPoint x="400" y="220" as="sourcePoint" />
            <mxPoint x="450" y="170" as="targetPoint" />
          </mxGeometry>
        </mxCell>
        <mxCell id="Q9_j2RHIWAGlf_NVnAla-26" value="&lt;font face=&quot;Comic Sans MS&quot;&gt;RING BUFFER&lt;/font&gt;" style="rounded=1;whiteSpace=wrap;html=1;sketch=1;curveFitting=1;jiggle=2;opacity=0;" vertex="1" parent="1">
          <mxGeometry x="290" y="230" width="120" height="60" as="geometry" />
        </mxCell>
      </root>
    </mxGraphModel>
  </diagram>
</mxfile>
